<svg xmlns="http://www.w3.org/2000/svg"  viewBox="0 0 32 32" width="50px" height="50px" fill-rule="evenodd" clip-rule="evenodd" baseProfile="basic"><path fill="#00953f" fill-rule="evenodd" d="M6.003,22v-4h2v-2h2l2,2	v2l-4,2H6.003z" clip-rule="evenodd"/><path fill="#00953f" fill-rule="evenodd" d="M20.003,20v-2h4v2h2v2	l-2,2h-2L20.003,20z" clip-rule="evenodd"/><path fill="#91c14b" fill-rule="evenodd" d="M8.003,22v-2h2l1,1l-1,1	H8.003z" clip-rule="evenodd"/><path fill="#91c14b" fill-rule="evenodd" d="M20.003,20h2v2l-1,1	l-1-1V20z" clip-rule="evenodd"/><path fill="#91c14b" fill-rule="evenodd" d="M10.001,16.001V18h2.001	v-1.999H10.001z" clip-rule="evenodd"/><path fill="#91c14b" fill-rule="evenodd" d="M24.001,22.001V24h2.001	v-1.999H24.001z" clip-rule="evenodd"/><path fill="#b4252c" fill-rule="evenodd" d="M10.003,32v-2h2v-2h2v-4	h-2v-2h2v-9h4v11h2v2h-2v2h2v2h2v2H10.003z" clip-rule="evenodd"/><path fill="#b4252c" fill-rule="evenodd" d="M10.001,20.001V22h2.001	v-1.999H10.001z" clip-rule="evenodd"/><path fill="#b4252c" fill-rule="evenodd" d="M20.001,22.001V24h2.001	v-1.999H20.001z" clip-rule="evenodd"/><path fill="#00953f" fill-rule="evenodd" d="M8.003,10V6h2V2h4V0h4v2	h2v2h2v2h2v4h-2v2h-2v2h-8v-2h-2v-2H8.003z" clip-rule="evenodd"/><path fill="#91c14b" fill-rule="evenodd" d="M10.001,8.001V10h2.001	V8.001H10.001z" clip-rule="evenodd"/><path fill="#91c14b" fill-rule="evenodd" d="M12.001,4v1.999h2.001V4	H12.001z" clip-rule="evenodd"/><path fill="#91c14b" fill-rule="evenodd" d="M16.001,2v1.999h2.001V2	H16.001z" clip-rule="evenodd"/><path fill="#91c14b" fill-rule="evenodd" d="M14.003,8.001V10h2.001	V8.001H14.003z" clip-rule="evenodd"/><path fill="#91c14b" fill-rule="evenodd" d="M18.001,10.001V12h2.001	v-1.999H18.001z" clip-rule="evenodd"/><path fill="#91c14b" fill-rule="evenodd" d="M20.001,6v1.999h2.001V6	H20.001z" clip-rule="evenodd"/></svg>